<svg xmlns="http://www.w3.org/2000/svg" width="229" height="229" fill="none" viewBox="0 0 229 229"><rect width="228.213" height="228.213" fill="url(#paint0_radial_6_45)" rx="8"/><path fill="#fff" d="M63.3925 52.9121C63.3925 46.0964 68.9177 40.5712 75.7334 40.5712H125.097C131.912 40.5712 137.437 46.0964 137.437 52.9121V52.9121H63.3925V52.9121Z"/><path fill="#fff" d="M63.3925 55.3802H142.374C149.189 55.3802 154.715 60.9053 154.715 67.721V67.721H63.3925V55.3802Z"/><path fill="#fff" d="M63.3925 70.1892H149.47C156.456 70.1892 162.119 75.8525 162.119 82.8386V82.8386H63.3925V70.1892Z"/><path fill="#fff" d="M63.3925 84.9982H143.608C150.424 84.9982 155.949 90.5233 155.949 97.339V97.339H63.3925V84.9982Z"/><path fill="#fff" d="M63.3925 99.8072H125.097C131.912 99.8072 137.437 105.332 137.437 112.148V112.148H63.3925V99.8072Z"/><path fill="#fff" d="M63.3925 114.616H136.203C143.019 114.616 148.544 120.141 148.544 126.957V126.957H63.3925V114.616Z"/><path fill="#fff" d="M63.3925 129.425H151.012C157.828 129.425 163.353 134.95 163.353 141.766V141.766H63.3925V129.425Z"/><path fill="#fff" d="M63.3925 144.234H154.715C161.53 144.234 167.055 149.759 167.055 156.575V156.575H63.3925V144.234Z"/><path fill="#fff" d="M63.3925 159.043H149.47C156.456 159.043 162.119 164.706 162.119 171.692V171.692H63.3925V159.043Z"/><path fill="#fff" d="M63.3925 173.852H141.14V173.852C141.14 180.668 135.615 186.193 128.799 186.193H75.7333C68.9177 186.193 63.3925 180.668 63.3925 173.852V173.852Z"/><defs><radialGradient id="paint0_radial_6_45" cx="0" cy="0" r="1" gradientTransform="translate(114.107 114.107) rotate(90) scale(114.107)" gradientUnits="userSpaceOnUse"><stop stop-color="#A3E635"/><stop offset="1" stop-color="#65A30D"/></radialGradient></defs></svg>